# hex1 — 1 cell(s), R=1
# generated by scripts/tilegen.py — do not edit; edit spec/tiles.json
v 0.866025 0.100000 -0.500000
v -0.000000 0.100000 -1.000000
v -0.866025 0.100000 -0.500000
v -0.866025 -0.100000 -0.500000
v -0.000000 -0.100000 -1.000000
v 0.866025 -0.100000 -0.500000
v 0.866025 0.100000 0.500000
v 0.866025 -0.100000 0.500000
v 0.000000 0.100000 1.000000
v 0.000000 -0.100000 1.000000
v -0.866025 0.100000 0.500000
v -0.866025 -0.100000 0.500000
v -0.866025 0.100000 -0.500000
v -0.866025 -0.100000 -0.500000
v -0.866025 -0.100000 0.500000
v -0.866025 0.100000 0.500000
v -0.866025 0.100000 0.500000
v -0.866025 -0.100000 0.500000
v 0.000000 -0.100000 1.000000
v 0.000000 0.100000 1.000000
v 0.000000 0.100000 1.000000
v 0.000000 -0.100000 1.000000
v 0.866025 -0.100000 0.500000
v 0.866025 0.100000 0.500000
v 0.866025 0.100000 0.500000
v 0.866025 -0.100000 0.500000
v 0.866025 -0.100000 -0.500000
v 0.866025 0.100000 -0.500000
v 0.866025 0.100000 -0.500000
v 0.866025 -0.100000 -0.500000
v -0.000000 -0.100000 -1.000000
v -0.000000 0.100000 -1.000000
v -0.000000 0.100000 -1.000000
v -0.000000 -0.100000 -1.000000
v -0.866025 -0.100000 -0.500000
v -0.866025 0.100000 -0.500000
vt 1.000000 0.750000
vt 0.500000 1.000000
vt 0.000000 0.750000
vt 0.000000 0.750000
vt 0.500000 1.000000
vt 1.000000 0.750000
vt 1.000000 0.250000
vt 1.000000 0.250000
vt 0.500000 0.000000
vt 0.500000 0.000000
vt 0.000000 0.250000
vt 0.000000 0.250000
vt 0.000000 0.750000
vt 0.000000 0.750000
vt 0.000000 0.250000
vt 0.000000 0.250000
vt 0.000000 0.250000
vt 0.000000 0.250000
vt 0.500000 0.000000
vt 0.500000 0.000000
vt 0.500000 0.000000
vt 0.500000 0.000000
vt 1.000000 0.250000
vt 1.000000 0.250000
vt 1.000000 0.250000
vt 1.000000 0.250000
vt 1.000000 0.750000
vt 1.000000 0.750000
vt 1.000000 0.750000
vt 1.000000 0.750000
vt 0.500000 1.000000
vt 0.500000 1.000000
vt 0.500000 1.000000
vt 0.500000 1.000000
vt 0.000000 0.750000
vt 0.000000 0.750000
vn 0.0000 1.0000 0.0000
vn 0.0000 -1.0000 0.0000
vn -1.0000 0.0000 -0.0000
vn -0.5000 0.0000 0.8660
vn 0.5000 0.0000 0.8660
vn 1.0000 0.0000 -0.0000
vn 0.5000 0.0000 -0.8660
vn -0.5000 0.0000 -0.8660
o hex1
s 1
f 1/1/1 2/2/1 3/3/1
f 4/4/2 5/5/2 6/6/2
f 7/7/1 1/1/1 3/3/1
f 4/4/2 6/6/2 8/8/2
f 9/9/1 7/7/1 3/3/1
f 4/4/2 8/8/2 10/10/2
f 3/3/1 11/11/1 9/9/1
f 10/10/2 12/12/2 4/4/2
f 13/13/3 14/14/3 15/15/3
f 13/13/3 15/15/3 16/16/3
f 17/17/4 18/18/4 19/19/4
f 17/17/4 19/19/4 20/20/4
f 21/21/5 22/22/5 23/23/5
f 21/21/5 23/23/5 24/24/5
f 25/25/6 26/26/6 27/27/6
f 25/25/6 27/27/6 28/28/6
f 29/29/7 30/30/7 31/31/7
f 29/29/7 31/31/7 32/32/7
f 33/33/8 34/34/8 35/35/8
f 33/33/8 35/35/8 36/36/8
