# hex3_row collider — 3 convex hex prism(s), inset 0.9425
# generated by scripts/tilegen.py — do not edit; edit spec/tiles.json
v -0.816229 0.100000 0.471250
v 0.000000 0.100000 0.942500
v 0.816229 0.100000 0.471250
v 0.816229 -0.100000 0.471250
v 0.000000 -0.100000 0.942500
v -0.816229 -0.100000 0.471250
v -0.816229 0.100000 -0.471250
v -0.816229 -0.100000 -0.471250
v -0.000000 0.100000 -0.942500
v -0.000000 -0.100000 -0.942500
v 0.816229 0.100000 -0.471250
v 0.816229 -0.100000 -0.471250
v 0.816229 0.100000 0.471250
v 0.816229 -0.100000 0.471250
v 0.816229 -0.100000 -0.471250
v 0.816229 0.100000 -0.471250
v 0.816229 0.100000 -0.471250
v 0.816229 -0.100000 -0.471250
v -0.000000 -0.100000 -0.942500
v -0.000000 0.100000 -0.942500
v -0.000000 0.100000 -0.942500
v -0.000000 -0.100000 -0.942500
v -0.816229 -0.100000 -0.471250
v -0.816229 0.100000 -0.471250
v -0.816229 0.100000 -0.471250
v -0.816229 -0.100000 -0.471250
v -0.816229 -0.100000 0.471250
v -0.816229 0.100000 0.471250
v -0.816229 0.100000 0.471250
v -0.816229 -0.100000 0.471250
v 0.000000 -0.100000 0.942500
v 0.000000 0.100000 0.942500
v 0.000000 0.100000 0.942500
v 0.000000 -0.100000 0.942500
v 0.816229 -0.100000 0.471250
v 0.816229 0.100000 0.471250
v 0.915822 0.100000 0.471250
v 1.732051 0.100000 0.942500
v 2.548280 0.100000 0.471250
v 2.548280 -0.100000 0.471250
v 1.732051 -0.100000 0.942500
v 0.915822 -0.100000 0.471250
v 0.915822 0.100000 -0.471250
v 0.915822 -0.100000 -0.471250
v 1.732051 0.100000 -0.942500
v 1.732051 -0.100000 -0.942500
v 2.548280 0.100000 -0.471250
v 2.548280 -0.100000 -0.471250
v 2.548280 0.100000 0.471250
v 2.548280 -0.100000 0.471250
v 2.548280 -0.100000 -0.471250
v 2.548280 0.100000 -0.471250
v 2.548280 0.100000 -0.471250
v 2.548280 -0.100000 -0.471250
v 1.732051 -0.100000 -0.942500
v 1.732051 0.100000 -0.942500
v 1.732051 0.100000 -0.942500
v 1.732051 -0.100000 -0.942500
v 0.915822 -0.100000 -0.471250
v 0.915822 0.100000 -0.471250
v 0.915822 0.100000 -0.471250
v 0.915822 -0.100000 -0.471250
v 0.915822 -0.100000 0.471250
v 0.915822 0.100000 0.471250
v 0.915822 0.100000 0.471250
v 0.915822 -0.100000 0.471250
v 1.732051 -0.100000 0.942500
v 1.732051 0.100000 0.942500
v 1.732051 0.100000 0.942500
v 1.732051 -0.100000 0.942500
v 2.548280 -0.100000 0.471250
v 2.548280 0.100000 0.471250
v 2.647873 0.100000 0.471250
v 3.464102 0.100000 0.942500
v 4.280331 0.100000 0.471250
v 4.280331 -0.100000 0.471250
v 3.464102 -0.100000 0.942500
v 2.647873 -0.100000 0.471250
v 2.647873 0.100000 -0.471250
v 2.647873 -0.100000 -0.471250
v 3.464102 0.100000 -0.942500
v 3.464102 -0.100000 -0.942500
v 4.280331 0.100000 -0.471250
v 4.280331 -0.100000 -0.471250
v 4.280331 0.100000 0.471250
v 4.280331 -0.100000 0.471250
v 4.280331 -0.100000 -0.471250
v 4.280331 0.100000 -0.471250
v 4.280331 0.100000 -0.471250
v 4.280331 -0.100000 -0.471250
v 3.464102 -0.100000 -0.942500
v 3.464102 0.100000 -0.942500
v 3.464102 0.100000 -0.942500
v 3.464102 -0.100000 -0.942500
v 2.647873 -0.100000 -0.471250
v 2.647873 0.100000 -0.471250
v 2.647873 0.100000 -0.471250
v 2.647873 -0.100000 -0.471250
v 2.647873 -0.100000 0.471250
v 2.647873 0.100000 0.471250
v 2.647873 0.100000 0.471250
v 2.647873 -0.100000 0.471250
v 3.464102 -0.100000 0.942500
v 3.464102 0.100000 0.942500
v 3.464102 0.100000 0.942500
v 3.464102 -0.100000 0.942500
v 4.280331 -0.100000 0.471250
v 4.280331 0.100000 0.471250
vt 0.009583 0.264375
vt 0.166667 0.028750
vt 0.323750 0.264375
vt 0.323750 0.264375
vt 0.166667 0.028750
vt 0.009583 0.264375
vt 0.009583 0.735625
vt 0.009583 0.735625
vt 0.166667 0.971250
vt 0.166667 0.971250
vt 0.323750 0.735625
vt 0.323750 0.735625
vt 0.323750 0.264375
vt 0.323750 0.264375
vt 0.323750 0.735625
vt 0.323750 0.735625
vt 0.323750 0.735625
vt 0.323750 0.735625
vt 0.166667 0.971250
vt 0.166667 0.971250
vt 0.166667 0.971250
vt 0.166667 0.971250
vt 0.009583 0.735625
vt 0.009583 0.735625
vt 0.009583 0.735625
vt 0.009583 0.735625
vt 0.009583 0.264375
vt 0.009583 0.264375
vt 0.009583 0.264375
vt 0.009583 0.264375
vt 0.166667 0.028750
vt 0.166667 0.028750
vt 0.166667 0.028750
vt 0.166667 0.028750
vt 0.323750 0.264375
vt 0.323750 0.264375
vt 0.342917 0.264375
vt 0.500000 0.028750
vt 0.657083 0.264375
vt 0.657083 0.264375
vt 0.500000 0.028750
vt 0.342917 0.264375
vt 0.342917 0.735625
vt 0.342917 0.735625
vt 0.500000 0.971250
vt 0.500000 0.971250
vt 0.657083 0.735625
vt 0.657083 0.735625
vt 0.657083 0.264375
vt 0.657083 0.264375
vt 0.657083 0.735625
vt 0.657083 0.735625
vt 0.657083 0.735625
vt 0.657083 0.735625
vt 0.500000 0.971250
vt 0.500000 0.971250
vt 0.500000 0.971250
vt 0.500000 0.971250
vt 0.342917 0.735625
vt 0.342917 0.735625
vt 0.342917 0.735625
vt 0.342917 0.735625
vt 0.342917 0.264375
vt 0.342917 0.264375
vt 0.342917 0.264375
vt 0.342917 0.264375
vt 0.500000 0.028750
vt 0.500000 0.028750
vt 0.500000 0.028750
vt 0.500000 0.028750
vt 0.657083 0.264375
vt 0.657083 0.264375
vt 0.676250 0.264375
vt 0.833333 0.028750
vt 0.990417 0.264375
vt 0.990417 0.264375
vt 0.833333 0.028750
vt 0.676250 0.264375
vt 0.676250 0.735625
vt 0.676250 0.735625
vt 0.833333 0.971250
vt 0.833333 0.971250
vt 0.990417 0.735625
vt 0.990417 0.735625
vt 0.990417 0.264375
vt 0.990417 0.264375
vt 0.990417 0.735625
vt 0.990417 0.735625
vt 0.990417 0.735625
vt 0.990417 0.735625
vt 0.833333 0.971250
vt 0.833333 0.971250
vt 0.833333 0.971250
vt 0.833333 0.971250
vt 0.676250 0.735625
vt 0.676250 0.735625
vt 0.676250 0.735625
vt 0.676250 0.735625
vt 0.676250 0.264375
vt 0.676250 0.264375
vt 0.676250 0.264375
vt 0.676250 0.264375
vt 0.833333 0.028750
vt 0.833333 0.028750
vt 0.833333 0.028750
vt 0.833333 0.028750
vt 0.990417 0.264375
vt 0.990417 0.264375
vn 0.0000 1.0000 0.0000
vn 0.0000 -1.0000 0.0000
vn 1.0000 0.0000 -0.0000
vn 0.5000 0.0000 -0.8660
vn -0.5000 0.0000 -0.8660
vn -1.0000 0.0000 -0.0000
vn -0.5000 0.0000 0.8660
vn 0.5000 0.0000 0.8660
o hex3_row_collider_0
s 1
f 1/1/1 2/2/1 3/3/1
f 4/4/2 5/5/2 6/6/2
f 7/7/1 1/1/1 3/3/1
f 4/4/2 6/6/2 8/8/2
f 9/9/1 7/7/1 3/3/1
f 4/4/2 8/8/2 10/10/2
f 3/3/1 11/11/1 9/9/1
f 10/10/2 12/12/2 4/4/2
f 13/13/3 14/14/3 15/15/3
f 13/13/3 15/15/3 16/16/3
f 17/17/4 18/18/4 19/19/4
f 17/17/4 19/19/4 20/20/4
f 21/21/5 22/22/5 23/23/5
f 21/21/5 23/23/5 24/24/5
f 25/25/6 26/26/6 27/27/6
f 25/25/6 27/27/6 28/28/6
f 29/29/7 30/30/7 31/31/7
f 29/29/7 31/31/7 32/32/7
f 33/33/8 34/34/8 35/35/8
f 33/33/8 35/35/8 36/36/8
o hex3_row_collider_1
s 1
f 37/37/1 38/38/1 39/39/1
f 40/40/2 41/41/2 42/42/2
f 43/43/1 37/37/1 39/39/1
f 40/40/2 42/42/2 44/44/2
f 45/45/1 43/43/1 39/39/1
f 40/40/2 44/44/2 46/46/2
f 39/39/1 47/47/1 45/45/1
f 46/46/2 48/48/2 40/40/2
f 49/49/3 50/50/3 51/51/3
f 49/49/3 51/51/3 52/52/3
f 53/53/4 54/54/4 55/55/4
f 53/53/4 55/55/4 56/56/4
f 57/57/5 58/58/5 59/59/5
f 57/57/5 59/59/5 60/60/5
f 61/61/6 62/62/6 63/63/6
f 61/61/6 63/63/6 64/64/6
f 65/65/7 66/66/7 67/67/7
f 65/65/7 67/67/7 68/68/7
f 69/69/8 70/70/8 71/71/8
f 69/69/8 71/71/8 72/72/8
o hex3_row_collider_2
s 1
f 73/73/1 74/74/1 75/75/1
f 76/76/2 77/77/2 78/78/2
f 79/79/1 73/73/1 75/75/1
f 76/76/2 78/78/2 80/80/2
f 81/81/1 79/79/1 75/75/1
f 76/76/2 80/80/2 82/82/2
f 75/75/1 83/83/1 81/81/1
f 82/82/2 84/84/2 76/76/2
f 85/85/3 86/86/3 87/87/3
f 85/85/3 87/87/3 88/88/3
f 89/89/4 90/90/4 91/91/4
f 89/89/4 91/91/4 92/92/4
f 93/93/5 94/94/5 95/95/5
f 93/93/5 95/95/5 96/96/5
f 97/97/6 98/98/6 99/99/6
f 97/97/6 99/99/6 100/100/6
f 101/101/7 102/102/7 103/103/7
f 101/101/7 103/103/7 104/104/7
f 105/105/8 106/106/8 107/107/8
f 105/105/8 107/107/8 108/108/8
