# trihex — 3 cell(s), R=1
# generated by scripts/tilegen.py — do not edit; edit spec/tiles.json
v 0.866025 0.100000 -0.500000
v -0.000000 0.100000 -1.000000
v -0.866025 0.100000 -0.500000
v -0.866025 -0.100000 -0.500000
v -0.000000 -0.100000 -1.000000
v 0.866025 -0.100000 -0.500000
v 0.866025 0.100000 0.500000
v 0.866025 -0.100000 0.500000
v 1.732051 0.100000 2.000000
v 1.732051 0.100000 1.000000
v 1.732051 -0.100000 1.000000
v 1.732051 -0.100000 2.000000
v 0.866025 0.100000 2.500000
v 0.866025 -0.100000 2.500000
v -0.000000 0.100000 2.000000
v -0.000000 -0.100000 2.000000
v -1.732051 0.100000 2.000000
v -0.866025 0.100000 2.500000
v -0.866025 -0.100000 2.500000
v -1.732051 -0.100000 2.000000
v -1.732051 0.100000 1.000000
v -1.732051 -0.100000 1.000000
v -0.866025 0.100000 0.500000
v -0.866025 -0.100000 0.500000
v -0.866025 0.100000 -0.500000
v -0.866025 -0.100000 -0.500000
v -0.866025 -0.100000 0.500000
v -0.866025 0.100000 0.500000
v -0.866025 0.100000 0.500000
v -0.866025 -0.100000 0.500000
v -1.732051 -0.100000 1.000000
v -1.732051 0.100000 1.000000
v -1.732051 0.100000 1.000000
v -1.732051 -0.100000 1.000000
v -1.732051 -0.100000 2.000000
v -1.732051 0.100000 2.000000
v -1.732051 0.100000 2.000000
v -1.732051 -0.100000 2.000000
v -0.866025 -0.100000 2.500000
v -0.866025 0.100000 2.500000
v -0.866025 0.100000 2.500000
v -0.866025 -0.100000 2.500000
v -0.000000 -0.100000 2.000000
v -0.000000 0.100000 2.000000
v -0.000000 0.100000 2.000000
v -0.000000 -0.100000 2.000000
v 0.866025 -0.100000 2.500000
v 0.866025 0.100000 2.500000
v 0.866025 0.100000 2.500000
v 0.866025 -0.100000 2.500000
v 1.732051 -0.100000 2.000000
v 1.732051 0.100000 2.000000
v 1.732051 0.100000 2.000000
v 1.732051 -0.100000 2.000000
v 1.732051 -0.100000 1.000000
v 1.732051 0.100000 1.000000
v 1.732051 0.100000 1.000000
v 1.732051 -0.100000 1.000000
v 0.866025 -0.100000 0.500000
v 0.866025 0.100000 0.500000
v 0.866025 0.100000 0.500000
v 0.866025 -0.100000 0.500000
v 0.866025 -0.100000 -0.500000
v 0.866025 0.100000 -0.500000
v 0.866025 0.100000 -0.500000
v 0.866025 -0.100000 -0.500000
v -0.000000 -0.100000 -1.000000
v -0.000000 0.100000 -1.000000
v -0.000000 0.100000 -1.000000
v -0.000000 -0.100000 -1.000000
v -0.866025 -0.100000 -0.500000
v -0.866025 0.100000 -0.500000
vt 0.750000 0.857143
vt 0.500000 1.000000
vt 0.250000 0.857143
vt 0.250000 0.857143
vt 0.500000 1.000000
vt 0.750000 0.857143
vt 0.750000 0.571429
vt 0.750000 0.571429
vt 1.000000 0.142857
vt 1.000000 0.428571
vt 1.000000 0.428571
vt 1.000000 0.142857
vt 0.750000 0.000000
vt 0.750000 0.000000
vt 0.500000 0.142857
vt 0.500000 0.142857
vt 0.000000 0.142857
vt 0.250000 0.000000
vt 0.250000 0.000000
vt 0.000000 0.142857
vt 0.000000 0.428571
vt 0.000000 0.428571
vt 0.250000 0.571429
vt 0.250000 0.571429
vt 0.250000 0.857143
vt 0.250000 0.857143
vt 0.250000 0.571429
vt 0.250000 0.571429
vt 0.250000 0.571429
vt 0.250000 0.571429
vt 0.000000 0.428571
vt 0.000000 0.428571
vt 0.000000 0.428571
vt 0.000000 0.428571
vt 0.000000 0.142857
vt 0.000000 0.142857
vt 0.000000 0.142857
vt 0.000000 0.142857
vt 0.250000 0.000000
vt 0.250000 0.000000
vt 0.250000 0.000000
vt 0.250000 0.000000
vt 0.500000 0.142857
vt 0.500000 0.142857
vt 0.500000 0.142857
vt 0.500000 0.142857
vt 0.750000 0.000000
vt 0.750000 0.000000
vt 0.750000 0.000000
vt 0.750000 0.000000
vt 1.000000 0.142857
vt 1.000000 0.142857
vt 1.000000 0.142857
vt 1.000000 0.142857
vt 1.000000 0.428571
vt 1.000000 0.428571
vt 1.000000 0.428571
vt 1.000000 0.428571
vt 0.750000 0.571429
vt 0.750000 0.571429
vt 0.750000 0.571429
vt 0.750000 0.571429
vt 0.750000 0.857143
vt 0.750000 0.857143
vt 0.750000 0.857143
vt 0.750000 0.857143
vt 0.500000 1.000000
vt 0.500000 1.000000
vt 0.500000 1.000000
vt 0.500000 1.000000
vt 0.250000 0.857143
vt 0.250000 0.857143
vn 0.0000 1.0000 0.0000
vn 0.0000 -1.0000 0.0000
vn -1.0000 0.0000 -0.0000
vn -0.5000 0.0000 -0.8660
vn -0.5000 0.0000 0.8660
vn 0.5000 0.0000 0.8660
vn 1.0000 0.0000 -0.0000
vn 0.5000 0.0000 -0.8660
o trihex
s 1
f 1/1/1 2/2/1 3/3/1
f 4/4/2 5/5/2 6/6/2
f 7/7/1 1/1/1 3/3/1
f 4/4/2 6/6/2 8/8/2
f 9/9/1 10/10/1 7/7/1
f 8/8/2 11/11/2 12/12/2
f 9/9/1 7/7/1 3/3/1
f 4/4/2 8/8/2 12/12/2
f 13/13/1 9/9/1 3/3/1
f 4/4/2 12/12/2 14/14/2
f 15/15/1 13/13/1 3/3/1
f 4/4/2 14/14/2 16/16/2
f 17/17/1 18/18/1 15/15/1
f 16/16/2 19/19/2 20/20/2
f 21/21/1 17/17/1 15/15/1
f 16/16/2 20/20/2 22/22/2
f 23/23/1 21/21/1 15/15/1
f 16/16/2 22/22/2 24/24/2
f 3/3/1 23/23/1 15/15/1
f 16/16/2 24/24/2 4/4/2
f 25/25/3 26/26/3 27/27/3
f 25/25/3 27/27/3 28/28/3
f 29/29/4 30/30/4 31/31/4
f 29/29/4 31/31/4 32/32/4
f 33/33/3 34/34/3 35/35/3
f 33/33/3 35/35/3 36/36/3
f 37/37/5 38/38/5 39/39/5
f 37/37/5 39/39/5 40/40/5
f 41/41/6 42/42/6 43/43/6
f 41/41/6 43/43/6 44/44/6
f 45/45/5 46/46/5 47/47/5
f 45/45/5 47/47/5 48/48/5
f 49/49/6 50/50/6 51/51/6
f 49/49/6 51/51/6 52/52/6
f 53/53/7 54/54/7 55/55/7
f 53/53/7 55/55/7 56/56/7
f 57/57/8 58/58/8 59/59/8
f 57/57/8 59/59/8 60/60/8
f 61/61/7 62/62/7 63/63/7
f 61/61/7 63/63/7 64/64/7
f 65/65/8 66/66/8 67/67/8
f 65/65/8 67/67/8 68/68/8
f 69/69/4 70/70/4 71/71/4
f 69/69/4 71/71/4 72/72/4
